<svg width="100" height="100" viewBox="0 0 100 100" fill="none" xmlns="http://www.w3.org/2000/svg">
  <defs>
    <linearGradient id="globeGrad" x1="0" y1="0" x2="100" y2="100" gradientUnits="userSpaceOnUse">
      <stop offset="0%" stop-color="#ec4899"/>
      <stop offset="100%" stop-color="#a855f7"/>
    </linearGradient>
  </defs>
  <circle cx="50" cy="50" r="50" fill="url(#globeGrad)"/>
  <!-- Globe Grid -->
  <path d="M50 10 C28 10 10 28 10 50 C10 72 28 90 50 90 C72 90 90 72 90 50 C90 28 72 10 50 10 Z" stroke="white" stroke-width="2" stroke-opacity="0.5" fill="none"/>
  <ellipse cx="50" cy="50" rx="40" ry="15" stroke="white" stroke-width="1.5" stroke-opacity="0.3" fill="none"/>
  <ellipse cx="50" cy="50" rx="15" ry="40" stroke="white" stroke-width="1.5" stroke-opacity="0.3" fill="none"/>
  
  <!-- Plane Orbiter -->
  <path d="M50 10 A40 40 0 0 1 90 50" stroke="white" stroke-width="2" stroke-linecap="round" stroke-dasharray="4 4"/>
  <path d="M88 48 L94 44 L92 56 L88 48 Z" fill="white"/>
</svg>
