<svg width="100" height="100" viewBox="0 0 100 100" fill="none" xmlns="http://www.w3.org/2000/svg">
  <!-- Solid White Face Circle to ensure features are visible on any background -->
  <circle cx="50" cy="50" r="38" fill="white"/>

  <!-- The Main Blue Outline/Shape -->
  <path d="M50 15 C 30 15 15 30 15 50 C 15 65 25 78 40 82 L 35 92 L 50 85 C 70 85 85 70 85 50 C 85 30 70 15 50 15 Z" stroke="#004e92" stroke-width="8" stroke-linecap="round" stroke-linejoin="round"/>
  
  <!-- Headphones / Ears -->
  <path d="M12 42 H 15 V 58 H 12 A 4 4 0 0 1 8 54 V 46 A 4 4 0 0 1 12 42 Z" fill="#004e92"/>
  <path d="M88 42 H 85 V 58 H 88 A 4 4 0 0 0 92 54 V 46 A 4 4 0 0 0 88 42 Z" fill="#004e92"/>
  
  <!-- Antennas -->
  <line x1="22" y1="25" x2="22" y2="10" stroke="#004e92" stroke-width="4" stroke-linecap="round"/>
  <circle cx="22" cy="8" r="4" fill="white" stroke="#004e92" stroke-width="3"/>
  
  <line x1="78" y1="25" x2="78" y2="10" stroke="#004e92" stroke-width="4" stroke-linecap="round"/>
  <circle cx="78" cy="8" r="4" fill="white" stroke="#004e92" stroke-width="3"/>
  
  <!-- Face Features (Blue) -->
  <!-- Arched Eyes -->
  <path d="M35 45 Q 40 40 45 45" stroke="#004e92" stroke-width="5" stroke-linecap="round" fill="none"/>
  <path d="M55 45 Q 60 40 65 45" stroke="#004e92" stroke-width="5" stroke-linecap="round" fill="none"/>
  
  <!-- Smile -->
  <path d="M42 60 Q 50 68 58 60" stroke="#004e92" stroke-width="5" stroke-linecap="round" fill="none"/>
  
  <!-- Decorative Swoosh/Cut (simulating the ChatBot logo style) -->
  <path d="M20 50 L 50 20" stroke="white" stroke-width="3" opacity="0.0"/> <!-- Invisible guide, just ensuring clean vector -->
</svg>
